{
    "asset" : {
        "generator" : "Khronos glTF Blender I/O v1.2.75",
        "version" : "2.0"
    },
    "scene" : 0,
    "scenes" : [
        {
            "name" : "Scene",
            "nodes" : [
                0,
                1,
                2
            ]
        }
    ],
    "nodes" : [
        {
            "mesh" : 0,
            "name" : "Cube"
        },
        {
            "name" : "Light",
            "rotation" : [
                0.16907575726509094,
                0.7558803558349609,
                -0.27217137813568115,
                0.570947527885437
            ],
            "translation" : [
                4.076245307922363,
                5.903861999511719,
                -1.0054539442062378
            ]
        },
        {
            "name" : "Camera",
            "rotation" : [
                0.483536034822464,
                0.33687159419059753,
                -0.20870360732078552,
                0.7804827094078064
            ],
            "translation" : [
                7.358891487121582,
                4.958309173583984,
                6.925790786743164
            ]
        }
    ],
    "materials" : [
        {
            "doubleSided" : true,
            "emissiveFactor" : [
                0,
                0,
                0
            ],
            "name" : "Material",
            "pbrMetallicRoughness" : {
                "baseColorFactor" : [
                    0.06997913867235184,
                    0.06997913867235184,
                    0.06997913867235184,
                    1
                ],
                "metallicFactor" : 0,
                "roughnessFactor" : 0.4000000059604645
            }
        },
        {
            "doubleSided" : true,
            "emissiveFactor" : [
                0,
                0,
                0
            ],
            "name" : "Glass",
            "pbrMetallicRoughness" : {
                "baseColorFactor" : [
                    0.0051260110922157764,
                    0.0051260110922157764,
                    0.0051260110922157764,
                    1
                ],
                "metallicFactor" : 0.6288659572601318,
                "roughnessFactor" : 0.3659793734550476
            }
        }
    ],
    "meshes" : [
        {
            "name" : "Cube",
            "primitives" : [
                {
                    "attributes" : {
                        "POSITION" : 0,
                        "NORMAL" : 1,
                        "TEXCOORD_0" : 2
                    },
                    "indices" : 3,
                    "material" : 0
                },
                {
                    "attributes" : {
                        "POSITION" : 4,
                        "NORMAL" : 5,
                        "TEXCOORD_0" : 6
                    },
                    "indices" : 7,
                    "material" : 1
                }
            ]
        }
    ],
    "accessors" : [
        {
            "bufferView" : 0,
            "componentType" : 5126,
            "count" : 2141,
            "max" : [
                0.16446499526500702,
                0.20901097357273102,
                0.11276758462190628
            ],
            "min" : [
                -0.16446499526500702,
                -0.00546099990606308,
                -0.19773930311203003
            ],
            "type" : "VEC3"
        },
        {
            "bufferView" : 1,
            "componentType" : 5126,
            "count" : 2141,
            "type" : "VEC3"
        },
        {
            "bufferView" : 2,
            "componentType" : 5126,
            "count" : 2141,
            "type" : "VEC2"
        },
        {
            "bufferView" : 3,
            "componentType" : 5123,
            "count" : 3213,
            "type" : "SCALAR"
        },
        {
            "bufferView" : 4,
            "componentType" : 5126,
            "count" : 192,
            "max" : [
                0.159051775932312,
                0.20422886312007904,
                -0.12069233506917953
            ],
            "min" : [
                -0.15857580304145813,
                0.02471703477203846,
                -0.19119848310947418
            ],
            "type" : "VEC3"
        },
        {
            "bufferView" : 5,
            "componentType" : 5126,
            "count" : 192,
            "type" : "VEC3"
        },
        {
            "bufferView" : 6,
            "componentType" : 5126,
            "count" : 192,
            "type" : "VEC2"
        },
        {
            "bufferView" : 7,
            "componentType" : 5123,
            "count" : 294,
            "type" : "SCALAR"
        }
    ],
    "bufferViews" : [
        {
            "buffer" : 0,
            "byteLength" : 25692,
            "byteOffset" : 0
        },
        {
            "buffer" : 0,
            "byteLength" : 25692,
            "byteOffset" : 25692
        },
        {
            "buffer" : 0,
            "byteLength" : 17128,
            "byteOffset" : 51384
        },
        {
            "buffer" : 0,
            "byteLength" : 6426,
            "byteOffset" : 68512
        },
        {
            "buffer" : 0,
            "byteLength" : 2304,
            "byteOffset" : 74940
        },
        {
            "buffer" : 0,
            "byteLength" : 2304,
            "byteOffset" : 77244
        },
        {
            "buffer" : 0,
            "byteLength" : 1536,
            "byteOffset" : 79548
        },
        {
            "buffer" : 0,
            "byteLength" : 588,
            "byteOffset" : 81084
        }
    ],
    "buffers" : [
        {
            "byteLength" : 81672,
            "uri" : "data:application/octet-stream;base64,"
        }
    ]
}
