{
    "asset" : {
        "generator" : "Khronos glTF Blender I/O v1.2.75",
        "version" : "2.0"
    },
    "scene" : 0,
    "scenes" : [
        {
            "name" : "Scene",
            "nodes" : [
                0
            ]
        }
    ],
    "nodes" : [
        {
            "mesh" : 0,
            "name" : "Cube"
        }
    ],
    "materials" : [
        {
            "doubleSided" : true,
            "emissiveFactor" : [
                0,
                0,
                0
            ],
            "name" : "Material",
            "pbrMetallicRoughness" : {
                "baseColorFactor" : [
                    0.800000011920929,
                    0.800000011920929,
                    0.800000011920929,
                    1
                ],
                "metallicFactor" : 0,
                "roughnessFactor" : 0.4000000059604645
            }
        },
        {
            "doubleSided" : true,
            "emissiveFactor" : [
                0,
                0,
                0
            ],
            "name" : "ScreenGlass",
            "pbrMetallicRoughness" : {
                "baseColorFactor" : [
                    0.029100222513079643,
                    0.029100222513079643,
                    0.029100222513079643,
                    1
                ],
                "metallicFactor" : 0.7731959819793701,
                "roughnessFactor" : 0.24226804077625275
            }
        }
    ],
    "meshes" : [
        {
            "name" : "Cube",
            "primitives" : [
                {
                    "attributes" : {
                        "POSITION" : 0,
                        "NORMAL" : 1,
                        "TEXCOORD_0" : 2
                    },
                    "indices" : 3,
                    "material" : 0
                },
                {
                    "attributes" : {
                        "POSITION" : 4,
                        "NORMAL" : 5,
                        "TEXCOORD_0" : 6
                    },
                    "indices" : 7,
                    "material" : 1
                }
            ]
        }
    ],
    "accessors" : [
        {
            "bufferView" : 0,
            "componentType" : 5126,
            "count" : 130,
            "max" : [
                0.003809999907389283,
                0.07238999754190445,
                0.03555994853377342
            ],
            "min" : [
                -0.003809999907389283,
                -0.07238999754190445,
                -0.03555994853377342
            ],
            "type" : "VEC3"
        },
        {
            "bufferView" : 1,
            "componentType" : 5126,
            "count" : 130,
            "type" : "VEC3"
        },
        {
            "bufferView" : 2,
            "componentType" : 5126,
            "count" : 130,
            "type" : "VEC2"
        },
        {
            "bufferView" : 3,
            "componentType" : 5123,
            "count" : 414,
            "type" : "SCALAR"
        },
        {
            "bufferView" : 4,
            "componentType" : 5126,
            "count" : 97,
            "max" : [
                0.003809999907389283,
                0.07016795128583908,
                0.033565882593393326
            ],
            "min" : [
                -0.004924733657389879,
                -0.07016795128583908,
                -0.033565882593393326
            ],
            "type" : "VEC3"
        },
        {
            "bufferView" : 5,
            "componentType" : 5126,
            "count" : 97,
            "type" : "VEC3"
        },
        {
            "bufferView" : 6,
            "componentType" : 5126,
            "count" : 97,
            "type" : "VEC2"
        },
        {
            "bufferView" : 7,
            "componentType" : 5123,
            "count" : 324,
            "type" : "SCALAR"
        }
    ],
    "bufferViews" : [
        {
            "buffer" : 0,
            "byteLength" : 1560,
            "byteOffset" : 0
        },
        {
            "buffer" : 0,
            "byteLength" : 1560,
            "byteOffset" : 1560
        },
        {
            "buffer" : 0,
            "byteLength" : 1040,
            "byteOffset" : 3120
        },
        {
            "buffer" : 0,
            "byteLength" : 828,
            "byteOffset" : 4160
        },
        {
            "buffer" : 0,
            "byteLength" : 1164,
            "byteOffset" : 4988
        },
        {
            "buffer" : 0,
            "byteLength" : 1164,
            "byteOffset" : 6152
        },
        {
            "buffer" : 0,
            "byteLength" : 776,
            "byteOffset" : 7316
        },
        {
            "buffer" : 0,
            "byteLength" : 648,
            "byteOffset" : 8092
        }
    ],
    "buffers" : [
        {
            "byteLength" : 8740,
            "uri" : "data:application/octet-stream;base64,"
        }
    ]
}
